<svg width="37" height="37" viewBox="0 0 37 37" fill="none" xmlns="http://www.w3.org/2000/svg">
<circle cx="18.9186" cy="18.5006" r="15.9186" fill="#E7ECFF"/>
<path d="M26 24C26.7956 24 27.5587 24.3161 28.1213 24.8787C28.6839 25.4413 29 26.2044 29 27V27.715C29 31.292 24.79 34 19 34C13.21 34 9 31.433 9 27.715V27C9 26.2044 9.31607 25.4413 9.87868 24.8787C10.4413 24.3161 11.2044 24 12 24H26ZM19 10C19.7879 10 20.5681 10.1552 21.2961 10.4567C22.0241 10.7583 22.6855 11.2002 23.2426 11.7574C23.7998 12.3145 24.2417 12.9759 24.5433 13.7039C24.8448 14.4319 25 15.2121 25 16C25 16.7879 24.8448 17.5681 24.5433 18.2961C24.2417 19.0241 23.7998 19.6855 23.2426 20.2426C22.6855 20.7998 22.0241 21.2417 21.2961 21.5433C20.5681 21.8448 19.7879 22 19 22C17.4087 22 15.8826 21.3679 14.7574 20.2426C13.6321 19.1174 13 17.5913 13 16C13 14.4087 13.6321 12.8826 14.7574 11.7574C15.8826 10.6321 17.4087 10 19 10Z" fill="#505F9A"/>
</svg>
