<svg width="32" height="32" viewBox="0 0 32 32" fill="none" xmlns="http://www.w3.org/2000/svg">
<circle cx="15.9186" cy="15.9186" r="15.9186" fill="#E7ECFF"/>
<path d="M16.3129 23.5C16.0871 23.4997 15.8666 23.4315 15.6801 23.3042C12.9171 21.4286 11.7208 20.1426 11.0609 19.3386C9.65465 17.6247 8.98141 15.8651 9.00039 13.9596C9.02254 11.7761 10.7744 10 12.9055 10C14.4552 10 15.5286 10.8729 16.1536 11.6C16.1734 11.6228 16.1979 11.641 16.2254 11.6536C16.2528 11.6661 16.2827 11.6726 16.3129 11.6726C16.3431 11.6726 16.3729 11.6661 16.4004 11.6536C16.4279 11.641 16.4523 11.6228 16.4721 11.6C17.0972 10.8722 18.1705 10 19.7202 10C21.8514 10 23.6032 11.7761 23.6254 13.96C23.6444 15.8658 22.9704 17.6254 21.5649 19.3389C20.905 20.1429 19.7086 21.4289 16.9457 23.3045C16.7592 23.4317 16.5387 23.4998 16.3129 23.5Z" fill="#505F9A"/>
</svg>
