<svg width="48" height="48" viewBox="0 0 48 48" fill="none" xmlns="http://www.w3.org/2000/svg">
<circle cx="24" cy="24.0008" r="20.6512" fill="#E7ECFF"/>
<path d="M24 4C12.954 4 4 12.954 4 24C4 35.046 12.954 44 24 44C35.046 44 44 35.046 44 24C44 12.954 35.046 4 24 4Z" stroke="#545454" stroke-width="1.5" stroke-linecap="round" stroke-linejoin="round"/>
<path d="M8.54199 36.692C8.54199 36.692 13 31 24 31C35 31 39.46 36.692 39.46 36.692M24 24C25.5913 24 27.1174 23.3679 28.2426 22.2426C29.3678 21.1174 30 19.5913 30 18C30 16.4087 29.3678 14.8826 28.2426 13.7574C27.1174 12.6321 25.5913 12 24 12C22.4087 12 20.8826 12.6321 19.7573 13.7574C18.6321 14.8826 18 16.4087 18 18C18 19.5913 18.6321 21.1174 19.7573 22.2426C20.8826 23.3679 22.4087 24 24 24Z" stroke="#545454" stroke-width="1.5" stroke-linecap="round" stroke-linejoin="round"/>
</svg>
