<svg width="16" height="16" viewBox="0 0 16 16" fill="none" xmlns="http://www.w3.org/2000/svg">
<path d="M15.502 1.94039C15.5954 2.03412 15.6479 2.16106 15.6479 2.29339C15.6479 2.42573 15.5954 2.55267 15.502 2.64639L14.459 3.69039L12.459 1.69039L13.502 0.646393C13.5957 0.552658 13.7229 0.5 13.8555 0.5C13.988 0.5 14.1152 0.552658 14.209 0.646393L15.502 1.93939V1.94039ZM13.752 4.39639L11.752 2.39639L4.93896 9.21039C4.88392 9.26542 4.84249 9.33253 4.81796 9.40639L4.01296 11.8204C3.99836 11.8644 3.99629 11.9116 4.00697 11.9567C4.01766 12.0018 4.04068 12.0431 4.07347 12.0759C4.10625 12.1087 4.14751 12.1317 4.19263 12.1424C4.23775 12.1531 4.28495 12.151 4.32896 12.1364L6.74296 11.3314C6.81672 11.3072 6.88383 11.2661 6.93896 11.2114L13.752 4.39639Z" fill="white"/>
<path fill-rule="evenodd" clip-rule="evenodd" d="M1 13.5C1 13.8978 1.15804 14.2794 1.43934 14.5607C1.72064 14.842 2.10218 15 2.5 15H13.5C13.8978 15 14.2794 14.842 14.5607 14.5607C14.842 14.2794 15 13.8978 15 13.5V7.5C15 7.36739 14.9473 7.24021 14.8536 7.14645C14.7598 7.05268 14.6326 7 14.5 7C14.3674 7 14.2402 7.05268 14.1464 7.14645C14.0527 7.24021 14 7.36739 14 7.5V13.5C14 13.6326 13.9473 13.7598 13.8536 13.8536C13.7598 13.9473 13.6326 14 13.5 14H2.5C2.36739 14 2.24021 13.9473 2.14645 13.8536C2.05268 13.7598 2 13.6326 2 13.5V2.5C2 2.36739 2.05268 2.24021 2.14645 2.14645C2.24021 2.05268 2.36739 2 2.5 2H9C9.13261 2 9.25979 1.94732 9.35355 1.85355C9.44732 1.75979 9.5 1.63261 9.5 1.5C9.5 1.36739 9.44732 1.24021 9.35355 1.14645C9.25979 1.05268 9.13261 1 9 1H2.5C2.10218 1 1.72064 1.15804 1.43934 1.43934C1.15804 1.72064 1 2.10218 1 2.5V13.5Z" fill="white"/>
</svg>
