<svg width="37" height="37" viewBox="0 0 37 37" fill="none" xmlns="http://www.w3.org/2000/svg">
<circle cx="18.5" cy="18.5006" r="15.9186" fill="#E7ECFF"/>
<path d="M18.5 3.08203C9.98538 3.08203 3.08334 9.98407 3.08334 18.4987C3.08334 27.0133 9.98538 33.9154 18.5 33.9154C27.0146 33.9154 33.9167 27.0133 33.9167 18.4987C33.9167 9.98407 27.0146 3.08203 18.5 3.08203Z" stroke="#545454" stroke-width="1.5" stroke-linecap="round" stroke-linejoin="round"/>
<path d="M6.58446 28.2834C6.58446 28.2834 10.0208 23.8958 18.5 23.8958C26.9792 23.8958 30.4171 28.2834 30.4171 28.2834M18.5 18.5C19.7266 18.5 20.903 18.0127 21.7704 17.1454C22.6377 16.278 23.125 15.1016 23.125 13.875C23.125 12.6484 22.6377 11.472 21.7704 10.6046C20.903 9.73728 19.7266 9.25 18.5 9.25C17.2734 9.25 16.097 9.73728 15.2296 10.6046C14.3623 11.472 13.875 12.6484 13.875 13.875C13.875 15.1016 14.3623 16.278 15.2296 17.1454C16.097 18.0127 17.2734 18.5 18.5 18.5Z" stroke="#545454" stroke-width="1.5" stroke-linecap="round" stroke-linejoin="round"/>
</svg>
