<svg width="25" height="25" viewBox="0 0 25 25" fill="none" xmlns="http://www.w3.org/2000/svg">
<path fill-rule="evenodd" clip-rule="evenodd" d="M24.5412 22.4537L17.6966 15.6063C18.9235 13.933 19.5808 11.9099 19.5716 9.83492C19.5482 4.41859 15.1674 0.0313829 9.75106 9.94961e-05C7.15906 -0.0116278 4.67003 1.01377 2.83845 2.84787C1.00687 4.68196 -0.0151159 7.1724 0.000169018 9.76438C0.0235792 15.1812 4.40482 19.5688 9.8216 19.6001C11.905 19.6091 13.9355 18.9442 15.61 17.7046L15.6171 17.6992L22.4555 24.5412C22.8253 24.9291 23.3762 25.0861 23.8948 24.9514C24.4135 24.8166 24.8184 24.4114 24.9527 23.8926C25.0869 23.3739 24.9294 22.8231 24.5412 22.4537ZM9.8145 17.6394C5.48131 17.6145 1.97638 14.1047 1.95736 9.77153C1.94566 7.69821 2.76332 5.70626 4.22831 4.23909C5.6933 2.77192 7.68403 1.95131 9.75736 1.95992C14.0905 1.98485 17.5955 5.49456 17.6145 9.82778C17.6262 11.9011 16.8085 13.893 15.3436 15.3602C13.8786 16.8274 11.8878 17.648 9.8145 17.6394Z" fill="#595959"/>
</svg>
