<svg xmlns="http://www.w3.org/2000/svg" width="17" height="17" viewBox="0 0 17 17" fill="none">
<path d="M15.3353 14.078C14.324 12.3295 12.7654 11.0758 10.9465 10.4814C11.8462 9.94582 12.5452 9.1297 12.9362 8.15839C13.3272 7.18708 13.3885 6.11428 13.1108 5.10474C12.833 4.0952 12.2316 3.20475 11.3988 2.57012C10.566 1.9355 9.54785 1.5918 8.50081 1.5918C7.45376 1.5918 6.43566 1.9355 5.60285 2.57012C4.77005 3.20475 4.16859 4.0952 3.89084 5.10474C3.6131 6.11428 3.67442 7.18708 4.06539 8.15839C4.45636 9.1297 5.15537 9.94582 6.05506 10.4814C4.2362 11.0751 2.67764 12.3288 1.66627 14.078C1.62919 14.1385 1.60458 14.2057 1.59392 14.2759C1.58326 14.346 1.58676 14.4176 1.6042 14.4863C1.62164 14.5551 1.65268 14.6197 1.69549 14.6763C1.73829 14.7328 1.79199 14.7803 1.85342 14.8157C1.91485 14.8512 1.98277 14.874 2.05316 14.8829C2.12356 14.8917 2.195 14.8863 2.26328 14.867C2.33156 14.8478 2.3953 14.8151 2.45072 14.7708C2.50615 14.7265 2.55215 14.6716 2.586 14.6092C3.83709 12.447 6.04842 11.1561 8.50081 11.1561C10.9532 11.1561 13.1645 12.447 14.4156 14.6092C14.4495 14.6716 14.4955 14.7265 14.5509 14.7708C14.6063 14.8151 14.67 14.8478 14.7383 14.867C14.8066 14.8863 14.8781 14.8917 14.9484 14.8829C15.0188 14.874 15.0868 14.8512 15.1482 14.8157C15.2096 14.7803 15.2633 14.7328 15.3061 14.6763C15.3489 14.6197 15.38 14.5551 15.3974 14.4863C15.4149 14.4176 15.4183 14.346 15.4077 14.2759C15.397 14.2057 15.3724 14.1385 15.3353 14.078ZM4.78206 6.37485C4.78206 5.63935 5.00016 4.92037 5.40878 4.30883C5.8174 3.69728 6.39819 3.22064 7.0777 2.93918C7.75721 2.65771 8.50493 2.58407 9.2263 2.72756C9.94767 2.87105 10.6103 3.22522 11.1304 3.7453C11.6504 4.26538 12.0046 4.92799 12.1481 5.64936C12.2916 6.37073 12.2179 7.11844 11.9365 7.79796C11.655 8.47747 11.1784 9.05826 10.5668 9.46688C9.95529 9.8755 9.2363 10.0936 8.50081 10.0936C7.51486 10.0925 6.56959 9.70041 5.87242 9.00324C5.17524 8.30607 4.78311 7.3608 4.78206 6.37485Z" fill="black"/>
</svg>