<svg xmlns="http://www.w3.org/2000/svg" xmlns:xlink="http://www.w3.org/1999/xlink" viewBox="0 0 244.375 85" fill="#fff" fill-rule="evenodd" stroke="#000" stroke-linecap="round" stroke-linejoin="round"><use xlink:href="#A" x="7.188" y="2.5"/><symbol id="A" overflow="visible"><path d="M27.117 0h12.579v57.964c-6.453 1.22-11.19 1.708-16.335 1.708C8.004 59.671 0 52.76 0 39.505c0-12.767 8.495-21.06 21.645-21.06 2.042 0 3.594.162 5.473.65V0zm0 29.177c-1.47-.487-2.695-.65-4.247-.65-6.371 0-10.047 3.903-10.047 10.733 0 6.669 3.512 10.327 9.965 10.327 1.388 0 2.532-.081 4.329-.325V29.177zm32.589-9.838v29.029c0 10.002-.735 14.799-2.94 18.947-2.042 3.985-4.738 6.505-10.292 9.27l-11.68-5.53c5.554-2.602 8.249-4.878 9.964-8.376 1.797-3.578 2.37-7.725 2.37-18.621v-24.72h12.578zM47.128.067h12.578v12.848H47.128V.067zm20.175 22.118c5.555-2.601 10.863-3.74 16.663-3.74 6.453 0 10.7 1.707 12.578 5.041 1.061 1.87 1.388 4.309 1.388 9.514v25.451c-5.636.813-12.742 1.383-17.969 1.383-10.536 0-15.274-3.66-15.274-11.791 0-8.782 6.289-12.848 21.727-14.149v-2.765c0-2.277-1.143-3.089-4.329-3.089-4.655 0-9.883 1.301-14.784 3.822v-9.677zm19.684 19.922c-8.332.813-11.027 2.114-11.027 5.367 0 2.439 1.552 3.578 4.983 3.578 1.879 0 3.594-.162 6.044-.569v-8.376zm17.071-20.817c7.432-1.951 13.558-2.845 19.766-2.845 6.453 0 11.108 1.463 13.886 4.309 2.614 2.683 3.43 5.61 3.43 11.872v24.557h-12.578V35.115c0-4.797-1.633-6.587-6.125-6.587-1.715 0-3.267.163-5.8.894v29.761h-12.578V21.29zm41.972 44.723c4.411 2.277 8.822 3.333 13.477 3.333 8.249 0 11.761-3.333 11.761-11.302V57.8c-2.45 1.219-4.901 1.708-8.167 1.708-11.027 0-18.052-7.237-18.052-18.702 0-14.231 10.374-22.28 28.75-22.28 5.391 0 10.374.569 16.418 1.788l-4.307 9.033c-3.349-.65-.268-.087-2.799-.331v1.301l.163 5.285.081 6.831c.082 1.707.082 3.415.164 5.122v3.416c0 10.734-.898 15.775-3.594 19.922-3.921 6.099-10.7 9.108-20.338 9.108-4.901 0-9.147-.732-13.558-2.44V66.013zm24.994-37.405h-.408-.899c-2.45-.081-5.308.569-7.269 1.788-3.021 1.708-4.574 4.798-4.574 9.189 0 6.262 3.105 9.839 8.658 9.839 1.715 0 3.104-.326 4.737-.813v-.895-3.414c0-1.464-.081-3.091-.081-4.798l-.081-5.773-.082-4.147v-.976zm38.72-10.326c12.578 0 20.256 7.888 20.256 20.654 0 13.092-8.004 21.305-20.746 21.305-12.579 0-20.338-7.888-20.338-20.573 0-13.174 8.005-21.386 20.828-21.386zm-.246 31.875c4.82 0 7.679-3.985 7.679-10.896 0-6.83-2.777-10.896-7.595-10.896-4.983 0-7.843 3.985-7.843 10.896s2.86 10.896 7.759 10.896z" fill="#092e20" stroke="none"/></symbol></svg>